# xmcd CD database file generated by OrangeCD 5.2
#
# Track frame offsets:
#	150
#	13694
#	24763
#	35515
#	48874
#	69618
#	80624
#
# Disc length: 1318 seconds
#
# Revision: 0
# Processed by: cddbd v1.5.1PL0 Copyright (c) Steve Scherf et al.
# Submitted via: OrangeCD 5.2
#
DISCID=4c052407
DTITLE=Coconut Meltdown - S/T
DYEAR=2005
DGENRE=Country
TTITLE0=Misere En Ville
TTITLE1=Tout Nu Aux Lles D'la Mad'leine
TTITLE2=Reste Donc A Soir
TTITLE3=I'm So Lonely #17
TTITLE4=The Old Crossroad
TTITLE5=Hard To Love
TTITLE6=Wagon Wheel
EXTD=
EXTT0=
EXTT1=
EXTT2=
EXTT3=
EXTT4=
EXTT5=
EXTT6=
PLAYORDER=
